<?xml version="1.0" standalone="no"?>
<!DOCTYPE svg PUBLIC "-//W3C//DTD SVG 1.1//EN" "http://www.w3.org/Graphics/SVG/1.1/DTD/svg11.dtd">
<svg xmlns="http://www.w3.org/2000/svg" viewBox="0 0 195.04 217.82" width="195.0399932861328" height="217.82000732421875"><defs><style>.cls-1{fill:#fdc619;}.cls-2{fill:#1d1d1b;}</style></defs><g id="Camada_1" data-name="Camada 1"><path class="cls-1" d="M548,647.55l81.35-47.17c5.19-3.06,7.55-8.11,8.2-14.35V493.37c-.89-5.52-3.91-10.22-8.66-14.28l-80.89-46c-6.6-2.89-11.48-2.38-15.41,0l-82,46.63c-5.11,4.22-7.83,9.17-8,14.89v94.93c1.4,5.84,4.43,9.5,9.11,10.94l81.73,47.09A20.39,20.39,0,0,0,548,647.55Z" transform="translate(-442.48 -431.09)"/><polygon class="cls-2" points="74.51 51.73 120.53 166.56 168.38 166.56 121.44 50.36 74.51 50.36 74.51 51.73"/><polygon class="cls-2" points="27.57 166.56 74.51 50.36 97.58 109.3 74.51 166.56 27.57 166.56"/><polygon class="cls-1" points="142.41 166.33 137.62 154.94 142.41 154.94 146.96 166.33 142.41 166.33"/><polygon class="cls-1" points="131.01 139.68 135.34 138.76 128.51 121.45 124.41 123.5 131.01 139.68"/><polygon class="cls-1" points="122.13 105.27 114.83 88.41 111.19 90.23 118.03 106.86 122.13 105.27"/><polygon class="cls-1" points="108.46 71.78 101.62 55.37 97.29 57.42 104.81 73.83 108.46 71.78"/><polygon class="cls-1" points="75.42 100.94 79.97 102.54 86.35 85.68 82.03 83.63 75.42 100.94"/><polygon class="cls-1" points="60.73 133.36 65.62 134.89 72.91 118.71 67.9 117.57 60.73 133.36"/><polygon class="cls-1" points="48.3 166.33 55.82 149.93 59.7 149.93 54 166.33 48.3 166.33"/></g></svg>